<svg id="Layer_1" enable-background="new 0 0 512.134 512.134" height="512" viewBox="0 0 512.134 512.134" width="512" xmlns="http://www.w3.org/2000/svg"><g><path d="m511.96 192.744c0-67.469-54.876-122.358-122.327-122.358-4.334 0-8.672.229-12.982.687-11.607-19.628-27.715-36.289-47.077-48.594-23.137-14.707-49.92-22.479-77.449-22.479-27.268 0-53.833 7.636-76.823 22.081-19.435 12.212-35.655 28.825-47.369 48.425-1.812-.08-3.625-.12-5.432-.12-67.451 0-122.327 54.89-122.327 122.358 0 53.48 34.482 99.05 82.373 115.651v154.541c0 27.128 22.065 49.198 49.186 49.198h238.222c27.121 0 49.185-22.07 49.185-49.198v-151.44c53.243-13.241 92.82-61.457 92.82-118.752zm-389.459 122.36c31.2 0 61.192-11.994 83.78-33.215 14.732 4.933 30.109 7.427 45.844 7.427 17.859 0 35.163-3.184 51.591-9.48 22.703 22.423 53.245 35.136 85.433 35.263v86.679h-80.174v-61.011c0-8.284-6.714-15-14.996-15s-14.996 6.716-14.996 15v61.011h-56.276v-61.011c0-8.284-6.714-15-14.996-15s-14.996 6.716-14.996 15v61.011h-80.175v-87.081c3.286.265 6.607.407 9.961.407zm247.454 167.03h-238.222c-10.584 0-19.194-8.612-19.194-19.198v-31.159h276.609v31.159c0 10.585-8.61 19.198-19.193 19.198zm19.678-197.03c-27.277 0-53.02-11.982-70.628-32.876-2.922-3.467-7.153-5.333-11.472-5.333-2.167 0-4.357.471-6.413 1.444-15.373 7.283-31.857 10.977-48.995 10.977-15.229 0-30.022-2.941-43.97-8.742-5.879-2.445-12.663-.908-16.917 3.831-17.506 19.51-42.559 30.699-68.736 30.699-50.913 0-92.335-41.433-92.335-92.359s41.421-92.358 92.335-92.358c3.984 0 8.003.258 11.944.766 6.31.814 12.436-2.438 15.302-8.113 19.637-38.885 58.866-63.04 102.377-63.04 21.824 0 43.044 6.155 61.366 17.799 17.852 11.347 32.216 27.356 41.539 46.301 3.001 6.099 9.73 9.42 16.394 8.084 5.967-1.193 12.094-1.798 18.21-1.798 50.913 0 92.335 41.432 92.335 92.358s-41.423 92.36-92.336 92.36z"/></g></svg>