<?xml version="1.0" encoding="iso-8859-1"?>
<!-- Generator: Adobe Illustrator 19.0.0, SVG Export Plug-In . SVG Version: 6.00 Build 0)  -->
<svg version="1.1" id="Capa_1" xmlns="http://www.w3.org/2000/svg" xmlns:xlink="http://www.w3.org/1999/xlink" x="0px" y="0px"
	 viewBox="0 0 512 512" style="enable-background:new 0 0 512 512;" xml:space="preserve">
<g>
	<g>
		<path d="M511.998,14.958C511.972,6.692,505.238,0,496.993,0h-84.861c-3.979,0-7.794,1.581-10.608,4.395L215.74,190.178
			c-58.758-19.022-123.538-3.761-167.483,40.185c-64.343,64.343-64.343,169.037,0,233.38c64.342,64.342,169.035,64.345,233.38,0
			c43.946-43.946,59.206-108.725,40.185-167.483l12.84-12.84l48.587-9.717c5.939-1.188,10.581-5.83,11.769-11.769l8.647-43.234
			l43.234-8.647c5.944-1.188,10.589-5.838,11.772-11.783l8.205-41.246h30.122c8.285,0,15.002-6.717,15.002-15.002V15.002
			C512,14.987,511.998,14.973,511.998,14.958z M481.995,127.019h-27.431c-7.157,0-13.317,5.056-14.714,12.075l-8.654,43.501
			l-43.223,8.645c-5.939,1.188-10.581,5.83-11.769,11.769l-8.647,43.234l-43.233,8.647c-2.904,0.581-5.572,2.008-7.666,4.103
			l-22.76,22.76c-4.214,4.214-5.535,10.523-3.364,16.073c19.572,50.038,7.751,106.836-30.114,144.703
			c-52.637,52.636-138.295,52.652-190.948,0c-52.644-52.645-52.644-138.304,0-190.948c37.927-37.926,94.741-49.656,144.703-30.114
			c5.552,2.171,11.859,0.851,16.073-3.364L418.346,30.005h42.433L274.225,216.558c-5.859,5.859-5.859,15.357,0,21.216
			c2.929,2.929,6.769,4.395,10.608,4.395s7.679-1.464,10.608-4.395L481.995,51.221V127.019z"/>
	</g>
</g>
<g>
	<g>
		<path d="M154.339,357.661c-17.548-17.548-46.101-17.549-63.649,0c-17.548,17.548-17.548,46.101,0,63.649
			c17.547,17.548,46.101,17.549,63.649,0C171.887,403.762,171.887,375.208,154.339,357.661z M133.123,400.093
			c-5.865,5.864-15.352,5.864-21.216,0c-5.864-5.865-5.863-15.352,0-21.216c5.851-5.85,15.367-5.849,21.216,0
			C138.972,384.726,138.972,394.244,133.123,400.093z"/>
	</g>
</g>
<g>
</g>
<g>
</g>
<g>
</g>
<g>
</g>
<g>
</g>
<g>
</g>
<g>
</g>
<g>
</g>
<g>
</g>
<g>
</g>
<g>
</g>
<g>
</g>
<g>
</g>
<g>
</g>
<g>
</g>
</svg>
