<svg height="512pt" viewBox="0 0 512 512" width="512pt" xmlns="http://www.w3.org/2000/svg"><path d="m250.359375 354c-2.867187 10.183594-4.359375 20.953125-4.359375 32.0625 0 2.648438.117188 5.292969.328125 7.9375h-72.328125v-40zm201.640625-354h-392c-33.085938 0-60 26.914062-60 60v392c0 33.085938 26.914062 60 60 60h267.617188c-8.597657-6.4375-17.898438-13.976562-27.007813-22.425781-6.273437-5.824219-12.003906-11.683594-17.207031-17.574219h-223.402344c-11.027344 0-20-8.972656-20-20v-392c0-11.027344 8.972656-20 20-20h392c11.027344 0 20 8.972656 20 20v220.195312c14.664062 3.628907 28.257812 10.289063 40 19.648438v-239.84375c0-33.085938-26.914062-60-60-60zm-358 394h40v-40h-40zm40-158h-40v40h40zm0-118h-40v40h40zm283 118h-243v40h243zm1-118h-244v40h244zm74.566406 218.046875c12.53125 12.609375 19.433594 30.375 19.433594 50.015625 0 23.488281-14.070312 48.449219-41.816406 74.1875-23.765625 22.046875-49.800782 37.511719-54.777344 40.390625-2.003906 1.15625-6.457031 3.710937-6.457031 3.710937l-9.945313 5.703126-9.949218-5.699219s-4.457032-2.554688-6.457032-3.714844c-4.984375-2.878906-31.019531-18.34375-54.78125-40.390625-27.75-25.738281-41.816406-50.699219-41.816406-74.1875 0-19.640625 6.902344-37.40625 19.433594-50.015625 12.203125-12.28125 28.917968-19.046875 47.066406-19.046875 22.371094 0 37.210938 7.878906 46.550781 15.972656 10.863281-9.347656 26.257813-15.972656 46.449219-15.972656 18.148438 0 34.863281 6.765625 47.066406 19.046875zm-20.566406 50.015625c0-17.65625-10.402344-29.0625-26.5-29.0625-2.003906 0-3.84375.121094-5.558594.328125-7.210937 1.976563-14.40625 7.972656-20.703125 14.914063-.179687.636718-.242187 1.027343-.246093 1.058593 0-.007812.007812-.09375.007812-.253906h-.484375c-11.222656 12.636719-19.421875 27.953125-19.421875 27.953125s-8.34375-15.316406-19.867188-27.953125h-.226562c0 .160156.007812.246094.007812.253906 0-.023437-.039062-.257812-.136718-.644531-6.742188-7.320312-14.542969-13.667969-22.386719-15.492188-1.257813-.105468-2.582031-.164062-3.984375-.164062-16.097656 0-26.5 11.40625-26.5 29.0625 0 23.6875 41.519531 58.824219 73 77.8125 31.476562-18.988281 73-54.125 73-77.8125zm0 0"/></svg>